<?xml version="1.0" encoding="utf-8"?>
<!-- Generator: Adobe Illustrator 26.2.1, SVG Export Plug-In . SVG Version: 6.00 Build 0)  -->
<svg version="1.1" id="Calque_1" xmlns="http://www.w3.org/2000/svg" xmlns:xlink="http://www.w3.org/1999/xlink" x="0px" y="0px"
	 viewBox="0 0 621.73 599.73" style="enable-background:new 0 0 621.73 599.73;" xml:space="preserve">
<style type="text/css">
	.st0{fill:#FFF;}
	.st1{fill:#FFF;}
	.st2{fill:#FFF;}
	.st3{fill:#FFF;}
	.st4{fill:#FFF;}
	.st5{fill:#FFF;}
	.st6{fill:#FFF;}
	.st7{fill:#FFF;}
	.st8{fill:#FFF;}
	.st9{fill:#FFF;}
	.st10{fill:#FFF;}
	.st11{fill:#FFF;}
</style>
<g>
	<path class="st0" d="M274.01,586.53c-0.02,0.12-0.03,0.25-0.04,0.38c-1.48,0-2.96,0-4.44,0c-0.03-0.12-0.05-0.24-0.05-0.37
		C270.99,586.54,272.5,586.54,274.01,586.53z"/>
	<path class="st1" d="M357.38,586.91c1.42-0.97,2.99-0.24,4.48-0.37c-0.02,0.12-0.03,0.25-0.04,0.37
		C360.34,586.91,358.86,586.91,357.38,586.91z"/>
	<path class="st2" d="M603.16,285.55c-2.11-5.72-4.42-11.36-6.87-16.94c-4.41-10-6.74-20.38-6.27-31.34
		c0.33-7.82,0.99-15.63,0.72-23.46c-0.26-7.59-2.22-14.64-6.52-21c-3.99-5.91-8.86-11.06-13.76-16.18
		c-7.61-7.95-14.24-16.52-17.74-27.14c-2.02-6.14-4.05-12.27-5.89-18.47c-3.84-12.9-11.52-22.55-23.62-28.6
		c-4.01-2.01-7.92-4.21-11.93-6.2c-9.9-4.91-18.76-11.1-25.5-20.02c-3.6-4.77-7.25-9.51-10.91-14.23
		c-6.68-8.6-14.69-15.25-25.73-17.51c-6.22-1.27-12.5-2.1-18.8-2.82c-11.71-1.32-22.77-4.42-32.73-10.99
		c-5.53-3.65-11.03-7.36-16.83-10.57c-5.64-3.12-11.48-5.66-18.04-6.05c-1.88-0.33-3.77-0.07-5.66-0.15
		c-6.66-0.22-13.04,1.44-19.44,2.93c-7.35,1.71-14.71,3.34-22.31,3.29c-7.07-0.04-13.93-1.52-20.79-3.09
		c-6.69-1.53-13.34-3.36-20.3-3.14c-1.88,0.08-3.76-0.17-5.63,0.15c-3.72,0.18-7.26,1.14-10.7,2.5c-6.82,2.7-12.88,6.74-18.96,10.75
		c-8.76,5.79-17.77,10.96-28.32,12.85c-7.56,1.35-15.18,2.15-22.78,3.23c-10.87,1.55-20.34,5.68-27.66,14.17
		c-3.48,4.03-6.86,8.13-9.9,12.49c-7.98,11.42-17.9,20.49-30.62,26.41c-4.66,2.17-9.15,4.69-13.66,7.17
		C95.83,109.19,89,117.47,85.4,128.47c-1.32,4.04-2.72,8.06-3.93,12.14c-3.13,10.5-6.95,20.66-14.39,29
		c-4.77,5.35-9.6,10.64-14.43,15.93c-8.26,9.06-12.64,19.5-12.16,31.96c0.22,5.6,0.31,11.22,0.65,16.82
		c0.7,11.61-1.03,22.72-5.78,33.39c-2.3,5.16-4.29,10.46-6.41,15.7c-4.38,10.86-4.6,21.73-0.39,32.73c2.21,5.76,4.58,11.45,7,17.12
		c3.84,8.99,5.96,18.32,5.73,28.11c-0.19,8.04-0.83,16.07-0.76,24.13c0.07,8.58,2.33,16.4,7.35,23.42
		c3.8,5.3,8.22,10.05,12.71,14.75c7.65,8,14.42,16.56,17.9,27.28c2.02,6.22,4.15,12.4,6.01,18.67c3.83,12.9,11.55,22.49,23.64,28.53
		c4.27,2.13,8.43,4.5,12.71,6.61c9.73,4.81,18.23,11.12,24.85,19.81c3.58,4.7,7.16,9.39,10.77,14.06
		c6.78,8.76,14.98,15.38,26.18,17.59c7.24,1.42,14.58,2.13,21.88,3.19c8.12,1.18,15.99,3.09,23.27,7.09
		c6.72,3.7,12.94,8.18,19.51,12.11c6.86,4.11,13.92,7.69,22.16,7.96c1.45,0.3,2.92,0.06,4.38,0.14c3.77,0.03,7.5-0.33,11.2-1.09
		c3.83-0.79,7.65-1.64,11.45-2.56c10.44-2.51,20.9-3.49,31.57-1.4c9.45,1.85,18.7,4.82,28.41,5.27c0.3,0,0.59,0,0.89,0
		c1.46-0.57,3.01,0.06,4.48-0.37c3.65-0.08,7.13-0.93,10.54-2.18c7.4-2.71,13.85-7.12,20.38-11.38
		c8.03-5.25,16.23-10.11,25.77-12.13c8.16-1.73,16.46-2.53,24.71-3.64c11.91-1.61,21.93-6.52,29.45-16.09
		c3.1-3.95,6.34-7.8,9.25-11.88c7.42-10.41,16.53-18.76,28.13-24.33c4.7-2.26,9.27-4.81,13.9-7.23
		c10.6-5.55,18.02-13.84,21.82-25.26c1.55-4.67,3.2-9.32,4.5-14.07c3.48-12.69,9.63-23.78,18.96-33.14
		c3.85-3.86,7.38-8.06,10.97-12.17c7.13-8.16,10.68-17.64,10.59-28.53c-0.05-5.69-0.22-11.38-0.63-17.05
		c-0.88-12.15,0.86-23.78,5.83-34.94c1.97-4.42,3.72-8.94,5.59-13.41C606.22,308.12,607.36,296.98,603.16,285.55z M313.97,565.07
		C168.04,564.22,50.9,445.79,50.83,300.28C50.78,153.92,170.02,33.52,319.41,35.47c143.52,1.87,261.58,118.65,261.04,265.96
		C579.91,447.36,461.45,565.93,313.97,565.07z"/>
	<path class="st2" d="M313.7,102.87c6.56,0.22,13.92-0.36,21.05,1.73c14.6,4.28,23.85,13.52,26.37,28.84
		c1.04,6.33-0.3,12.46-1.68,18.6c-5.45,24.35-10.75,48.73-16.31,73.06c-2.81,12.27-10.96,19.54-22.94,22.58
		c-13.91,3.53-28.9-3.26-35.3-15.72c-2.43-4.74-3.05-9.97-4.13-15.06c-5.02-23.62-9.96-47.26-14.91-70.9
		c-4.23-20.2,8.58-38.77,29.02-42.29C300.89,102.67,306.93,102.97,313.7,102.87z"/>
	<path class="st2" d="M256.48,129.37c-2.79,12.95,1.53,24.93,3.97,37.07c4.04,20.13,8.41,40.2,12.65,60.3
		c0.5,2.38,1.21,4.69,2.15,6.94c0.19,0.46,0.91,1.1-0.37,1.43c-6.34,1.59-12.54,3.81-19.31,2.7c-8.81-1.46-15.94-5.55-20.29-13.39
		c-5.82-10.48-11.55-21.04-16.65-31.88c-9.78-20.78-1.8-44.85,18.24-56.39C242.15,133.1,250.95,130.02,256.48,129.37z"/>
	<path class="st2" d="M370.2,129.91c10.19,2.2,19.44,5.72,27.09,12.72c14.92,13.67,18.62,34.9,9.07,52.91
		c-4.96,9.36-10.01,18.67-15.02,28.01c-6.35,11.84-19.3,17.54-32.41,14.23c-2.71-0.68-5.38-1.5-8.09-2.19
		c-0.8-0.2-1.12-0.32-0.74-1.28c3.43-8.68,4.64-17.94,6.72-26.96c4.54-19.72,8.81-39.5,13.15-59.27c1.21-5.52,1.32-11.1,0.4-16.69
		C370.3,130.96,370.27,130.53,370.2,129.91z"/>
	<path class="st2" d="M112.33,362.3c3.35-10.11,6.68-20.17,10.04-30.21c0.25-0.73,0.34-1.35,0.07-2.12
		c-1.8-5.27-3.51-10.57-5.31-15.84c-0.88-2.58-2.16-4.88-5.17-5.49c-0.96-0.19-0.8-0.9-0.8-1.54c-0.01-0.97,0.73-0.74,1.27-0.75
		c9.46-0.1,18.91-0.19,28.37-0.29c0.74-0.01,1.44-0.15,1.42,1.05c-0.01,1.02-0.42,1.11-1.29,1.23c-6.09,0.77-7.18,2.29-5.31,7.93
		c4.9,14.82,9.92,29.61,14.9,44.41c0.09,0.27,0.19,0.53,0.29,0.79c0.83-0.24,0.69-0.96,0.85-1.49c3.57-11.8,7.55-23.49,10.68-35.42
		c0.54-2.06,0.86-4.19,1.06-6.31c0.55-5.72-1.99-8.98-7.63-9.92c-0.82-0.14-1.79,0.16-1.66-1.34c0.13-1.45,1.13-0.93,1.77-0.94
		c6.21-0.08,12.42-0.1,18.63-0.13c0.55,0,1.3-0.19,1.29,0.74c-0.01,0.6,0.25,1.24-0.59,1.7c-5.21,2.83-7.39,7.8-8.99,13.11
		c-5.97,19.75-11.91,39.52-17.83,59.29c-0.4,1.34-0.98,2-2.44,1.77c-1.94-0.31-4.37,0.87-5.73-0.43c-1.23-1.17-1.37-3.48-1.97-5.3
		c-4.62-13.78-9.24-27.55-13.89-41.4c-1,0.48-0.92,1.49-1.16,2.22c-4.76,14.51-9.47,29.03-14.14,43.57
		c-0.37,1.15-0.77,1.64-2.09,1.65c-6.08,0.04-6.09,0.09-8.18-5.63c-7.39-20.27-14.8-40.53-22.15-60.81
		c-1.24-3.43-2.68-6.58-6.59-7.65c-1.01-0.28-0.54-1.09-0.54-1.64c0.01-0.99,0.87-0.56,1.35-0.57c5.62-0.05,11.24-0.05,16.86-0.07
		c3.25-0.01,6.51-0.02,9.76-0.03c0.56,0,1.31-0.31,1.27,0.67c-0.02,0.56,0.37,1.16-0.56,1.65c-3.06,1.57-3.59,2.81-2.71,6.23
		c1.55,5.98,3.91,11.69,5.93,17.51c3.32,9.57,6.72,19.11,10.1,28.66C111.62,361.53,111.57,362.05,112.33,362.3z"/>
	<path class="st2" d="M301.07,381.51c-4.51,0-9.02,0.01-13.53-0.01c-0.74,0-1.63,0.33-1.62-1.08c0.01-1.32,0.81-1.15,1.61-1.17
		c0.15,0,0.3-0.02,0.44-0.03c4.13-0.5,4.56-1.45,2.34-5c-5.2-8.3-10.35-16.63-15.61-24.9c-1.48-2.33-2.8-4.88-5.86-5.72
		c-1.35-0.37-1.6-0.14-1.58,1.23c0.08,8.8,0.06,17.6,0.09,26.39c0,0.74,0.03,1.48,0.12,2.21c0.58,4.45,1.67,5.47,6.21,5.84
		c0.5,0.04,1.07,0.05,1.48,0.29c0.5,0.3,0.3,0.94,0.25,1.43c-0.07,0.77-0.7,0.61-1.18,0.61c-10.27,0.07-20.54,0.13-30.81,0.2
		c-0.73,0.01-1.28-0.05-1.31-1.02c-0.03-0.88,0.38-1.08,1.14-1.25c6.74-1.6,6.89-1.79,6.87-8.84c-0.04-17.3-0.08-34.6-0.14-51.9
		c-0.01-1.69-0.1-3.39-0.3-5.07c-0.53-4.52-1.58-5.5-6.12-5.89c-0.9-0.08-2.04,0.27-1.88-1.36c0.16-1.56,1.34-0.87,2.02-0.88
		c9.75-0.15,19.5-0.25,29.25-0.32c0.8-0.01,2.05-0.59,2.07,1.12c0.01,1.6-1.24,1.22-2.04,1.33c-4.47,0.6-5.42,1.43-5.74,5.97
		c-0.62,8.71,0.27,17.43-0.03,26.14c-0.04,1.25,0.5,1.2,1.49,1.04c3.57-0.55,6.51-2.28,9.09-4.68c5.22-4.85,9.53-10.48,13.84-16.11
		c1.12-1.46,1.93-3.12,2.34-4.95c0.83-3.68-0.47-6.02-4.03-7.19c-0.77-0.25-1.57-0.44-2.37-0.52c-0.8-0.08-1.42-0.12-1.34-1.22
		c0.07-0.99,0.67-0.97,1.36-0.97c7.84-0.04,15.67-0.09,23.51-0.12c0.47,0,1.16-0.18,1.15,0.63c0,0.59,0.33,1.35-0.66,1.62
		c-8.77,2.4-14,9.17-19.37,15.76c-2.56,3.15-5.12,6.31-7.79,9.36c-0.87,1-0.77,1.65-0.11,2.65c8.1,12.39,16.17,24.81,24.24,37.22
		c1.8,2.77,3.95,5.17,7.1,6.4c1.09,0.42,0.9,1.21,0.88,1.98c-0.03,1.17-0.97,0.66-1.49,0.67c-4.66,0.04-9.32,0.03-13.97,0.03
		C301.07,381.48,301.07,381.5,301.07,381.51z"/>
	<path class="st2" d="M205.58,182.16c1.28,10.48,6.85,19,11.41,27.93c3.01,5.89,6.08,11.75,9.16,17.61
		c1.48,2.82,3.28,5.44,5.48,7.74c0.71,0.74,0.7,1.1-0.18,1.63c-10.31,6.13-20.62,12.25-32.46,15.06c-2.9,0.69-5.85,1.01-8.79,0.53
		c-5.52-0.92-8.6-4.71-9.86-11.53c-4.05-21.95,3.13-39.86,19.54-54.45C201.63,185.11,203.36,183.52,205.58,182.16z"/>
	<path class="st2" d="M420.53,183.25c13.19,10.39,22.77,22.62,25.18,39.45c0.93,6.5,0.61,12.96-0.55,19.4
		c-1.83,10.17-7.78,13.87-18.41,11.42c-9.15-2.11-17.33-6.49-25.4-11.09c-2.43-1.39-4.79-2.89-7.18-4.36
		c-0.59-0.36-1.43-0.61-0.48-1.58c4.38-4.43,6.83-10.1,9.75-15.46c3.87-7.11,7.68-14.25,11.5-21.38
		C417.63,194.62,419.46,189.29,420.53,183.25z"/>
	<path class="st2" d="M358.86,381.38c-11.38,0-22.75,0.01-34.13-0.02c-0.62,0-1.53,0.38-1.81-0.33c-0.34-0.87-0.46-1.88,1.1-1.98
		c5.23-0.36,6.75-1.14,6.75-8.3c-0.01-14.27-0.08-28.53-0.16-42.8c-0.03-4.65-0.13-9.3-0.28-13.95c-0.16-4.94-1.44-6.26-6.33-6.61
		c-0.94-0.07-1.75,0.03-1.67-1.35c0.09-1.48,1.14-0.88,1.78-0.88c17.88-0.16,35.76-0.25,53.64-0.48c2.14-0.03,2.24,0.63,2.11,2.45
		c-0.45,6.25-0.84,12.51-0.36,18.79c0.05,0.63,0.81,1.85-0.8,2.03c-1.41,0.16-1.64-0.55-1.84-1.78c-0.52-3.19-1.31-6.33-2.58-9.33
		c-2.21-5.24-5.96-8.56-11.68-9.24c-3.81-0.45-7.66-0.49-11.48,0.14c-1.84,0.3-2.79,1.35-3.18,3.17c-0.43,1.99-0.3,3.97-0.29,5.96
		c0.03,7.61,0.11,15.22,0.08,22.83c-0.01,1.52,0.38,1.93,1.94,2c7.12,0.33,10.53-2.64,13.43-10.89c0.29-0.83,0.44-1.71,0.62-2.57
		c0.25-1.22,1.2-0.84,1.95-0.85c1.02-0.02,0.63,0.75,0.62,1.27c-0.12,9.24-0.16,18.47,0.44,27.69c0.04,0.65,0.55,1.5-0.72,1.66
		c-1.18,0.14-1.75-0.28-1.94-1.47c-0.37-2.34-1.15-4.55-2.32-6.61c-2.6-4.58-7.87-6.97-13.01-6.03c-0.95,0.17-0.98,0.7-0.97,1.39
		c0.11,9.6,0.15,19.21,0.35,28.81c0.06,2.88,1.36,4.06,4.26,4.37c3.98,0.42,8,0.55,11.92-0.19c6.11-1.14,9.88-5.21,12.16-10.79
		c1.28-3.14,2.1-6.43,2.68-9.77c0.08-0.43,0.17-0.87,0.25-1.3c0.22-1.09,1.08-0.8,1.77-0.79c0.93,0.01,0.72,0.68,0.71,1.27
		c-0.2,6.94-0.15,13.88,0.34,20.82c0.23,3.31,0.16,3.31-3.16,3.31c-6.73,0-13.45,0-20.18,0
		C358.86,381.14,358.86,381.26,358.86,381.38z"/>
	<path class="st2" d="M423.9,330.99c0-3.83,0.01-9.82-0.01-15.81c0-0.96-0.06-1.92-0.2-2.87c-0.6-4-1.76-5.05-5.9-5.4
		c-0.29-0.03-0.59-0.07-0.88-0.07c-0.89,0.01-1.09-0.49-1.11-1.28c-0.03-1.01,0.59-0.98,1.3-1c2.51-0.04,5.02-0.16,7.53-0.18
		c7.84-0.05,15.67-0.07,23.51-0.08c0.61,0,1.52-0.45,1.56,0.88c0.04,1.1-0.33,1.4-1.36,1.4c-0.8,0-1.61,0.21-2.41,0.33
		c-3.15,0.49-4.36,1.89-4.72,5.14c-0.39,3.54-0.11,7.07-0.08,10.61c0.1,11.97,0.08,23.95,0.17,35.92c0.02,3.1,0.41,6.18,1.23,9.18
		c2.07,7.66,6.68,10.99,14.59,10.54c9.91-0.57,15.15-5.27,17.41-15.62c1.64-7.52,1.15-15.14,1.16-22.74
		c0.01-7.02-0.14-14.04-0.28-21.05c-0.04-1.84-0.19-3.69-0.51-5.5c-0.7-3.96-2.69-5.57-7.24-6.63c-0.91-0.21-2.99,0.71-2.75-1.51
		c0.23-2.04,1.98-0.95,2.96-0.98c5.47-0.15,10.93-0.15,16.4-0.15c0.65,0,1.68-0.55,1.79,0.9c0.1,1.29-0.62,1.31-1.56,1.53
		c-4.11,0.95-5.54,2.49-6.07,6.75c-0.83,6.62-0.23,13.29-0.36,19.93c-0.17,8.71,0.48,17.44-0.46,26.14
		c-1.04,9.63-4.65,17.48-14.5,21.01c-4.6,1.65-9.39,1.81-14.2,1.62c-3.33-0.13-6.58-0.66-9.74-1.74
		c-8.89-3.04-13.25-9.55-14.34-18.6c-0.14-1.17-0.35-2.34-0.42-3.52C423.86,349.84,424.03,341.49,423.9,330.99z"/>
	<path class="st2" d="M318.88,58.14c54.4,0.62,106.2,18.75,151,55.8c41.32,34.18,68.24,77.59,81.25,129.59
		c3.26,13.04,5.24,26.31,6.15,39.73c0.05,0.78,0.93,2.1-0.74,2.23c-1.6,0.13-1.14-1.34-1.19-2.11c-0.92-14.17-3.23-28.12-6.74-41.87
		c-9.26-36.21-26.04-68.53-50.31-96.96c-21.21-24.85-46.45-44.58-75.66-59.19c-22.62-11.32-46.46-18.81-71.48-22.57
		c-21.08-3.16-42.23-3.62-63.37-1.13c-47.34,5.56-89.52,23.47-126.19,53.94c-35.76,29.71-60.88,66.76-75.39,110.96
		c-5.49,16.72-9.04,33.86-10.61,51.4c-0.12,1.32-0.29,2.64-0.38,3.97c-0.06,0.82-0.16,1.52-1.23,1.36
		c-1.06-0.15-0.67-0.93-0.64-1.54c0.55-9.37,1.91-18.65,3.72-27.84c4.32-22,11.55-43.03,21.74-63
		c10.62-20.83,23.96-39.77,40.06-56.74c27.84-29.33,60.89-50.51,99.2-63.45c16.25-5.49,32.92-9.12,49.98-11.01
		C297.08,58.72,306.14,58.28,318.88,58.14z"/>
	<path class="st2" d="M96.35,405.62c1.57-0.74,2.19,0.2,2.8,1.45c7.59,15.65,16.86,30.26,27.75,43.8
		c29.15,36.23,65.6,62.19,109.53,77.58c16.9,5.92,34.26,9.81,52.03,11.77c17.08,1.89,34.18,1.95,51.29,0.2
		c34.89-3.57,67.49-14.15,97.63-32.05c40.97-24.33,72.17-57.85,93.55-100.47c0.63-1.25,0.89-3.25,3.18-2.31
		C498.7,481.5,418.29,541.46,320.91,543.53C213.41,545.81,131.06,480.07,96.35,405.62z"/>
	<path class="st3" d="M309.95,408.76c0.2-1.79-0.92-4.71,0.53-5.96c1.26-1.08,4.08-0.32,6.21-0.37c0.66-0.01,1.33,0,2,0
		c0.69-0.01,1.33-0.04,1.34,0.98c0.01,0.97-0.52,1.06-1.27,1.06c-1.63-0.02-3.26,0.09-4.88-0.03c-1.62-0.13-1.35,0.9-1.31,1.83
		c0.04,0.86-0.43,2.02,1.26,1.87c1.39-0.12,2.81-0.03,4.21-0.02c0.59,0,1.17-0.08,1.15,0.86c-0.02,0.85-0.3,1.2-1.16,1.19
		c-1.4-0.03-2.82,0.08-4.21-0.03c-1.68-0.13-1.27,1.03-1.24,1.88c0.03,0.81-0.56,2.04,1.19,1.93c1.69-0.11,3.4,0.01,5.1-0.04
		c0.89-0.03,1.37,0.14,1.33,1.19c-0.03,1.03-0.65,0.96-1.33,0.96c-2.51-0.01-5.03-0.04-7.54,0.02c-1.04,0.02-1.46-0.29-1.42-1.37
		C310,412.84,309.95,410.99,309.95,408.76z"/>
	<path class="st3" d="M390.06,409.16c0-1.7,0.06-3.39-0.02-5.09c-0.06-1.19,0.24-1.73,1.57-1.67c2.36,0.1,4.72,0.04,7.08,0.02
		c0.7,0,1.29-0.03,1.29,0.99c0.01,0.96-0.46,1.07-1.23,1.05c-1.55-0.03-3.11,0.09-4.65-0.04c-1.44-0.12-1.71,0.44-1.64,1.76
		c0.06,1.25,0.07,2.14,1.73,1.94c1.16-0.15,2.36-0.06,3.54-0.02c0.57,0.02,1.36-0.34,1.38,0.82c0.02,1.01-0.39,1.26-1.3,1.22
		c-1.33-0.05-2.66,0.06-3.98-0.03c-1.6-0.1-1.33,0.98-1.31,1.9c0.02,0.88-0.39,2,1.27,1.91c1.69-0.1,3.39,0.01,5.09-0.03
		c0.87-0.02,1.41,0.14,1.37,1.19c-0.04,1-0.67,0.96-1.36,0.96c-2.51-0.01-5.02-0.05-7.53,0.02c-1.05,0.03-1.46-0.3-1.43-1.37
		c0.06-1.84,0.02-3.69,0.02-5.53C389.98,409.16,390.02,409.16,390.06,409.16z"/>
	<path class="st3" d="M416.68,409.19c0-1.77,0.06-3.54-0.02-5.31c-0.06-1.2,0.42-1.51,1.54-1.48c2.36,0.07,4.72,0.02,7.08,0.02
		c0.68,0,1.29-0.09,1.33,0.95c0.04,1.17-0.66,1.09-1.42,1.08c-1.62-0.01-3.25,0.07-4.87-0.03c-1.49-0.09-1.26,0.86-1.17,1.72
		c0.08,0.82-0.53,2.06,1.2,1.96c1.4-0.08,2.8,0.01,4.2-0.03c0.76-0.02,1.22,0.06,1.2,1.04c-0.03,0.98-0.54,1.04-1.28,1.02
		c-1.11-0.02-2.23,0.11-3.32-0.03c-1.72-0.22-2.11,0.48-2.07,2.1c0.03,1.37,0.38,1.82,1.75,1.72c1.62-0.11,3.25,0,4.87-0.04
		c0.85-0.02,1.2,0.3,1.18,1.16c-0.02,0.77-0.38,1-1.11,1c-2.66-0.02-5.31-0.05-7.97,0.01c-1.03,0.02-1.25-0.46-1.23-1.34
		c0.03-1.84,0.01-3.69,0.01-5.53C416.61,409.19,416.64,409.19,416.68,409.19z"/>
	<path class="st4" d="M231.39,409.2c0-1.85,0.04-3.7-0.02-5.54c-0.03-0.98,0.32-1.27,1.28-1.25c2.44,0.06,4.88,0.03,7.32,0.01
		c0.71,0,1.32,0.01,1.33,1c0.01,0.97-0.55,1.05-1.29,1.04c-1.48-0.02-2.96,0.05-4.44-0.02c-1.15-0.06-1.82,0.12-1.62,1.53
		c0.16,1.1-0.31,2.45,1.69,2.16c1.16-0.17,2.36-0.04,3.54-0.03c0.63,0.01,1.36-0.19,1.35,0.91c-0.01,1.1-0.64,1.15-1.45,1.13
		c-1.26-0.02-2.52,0.08-3.77-0.03c-1.86-0.15-1.22,1.18-1.31,2.06c-0.11,1.01-0.13,1.88,1.39,1.76c1.69-0.14,3.4,0.01,5.1-0.05
		c0.91-0.03,1.12,0.34,1.11,1.17c-0.01,0.8-0.33,1-1.06,0.99c-2.66-0.03-5.32-0.06-7.98,0.01c-1.05,0.03-1.22-0.43-1.2-1.32
		c0.05-1.85,0.01-3.7,0.01-5.55C231.38,409.2,231.38,409.2,231.39,409.2z"/>
	<path class="st4" d="M258.01,409.17c0-1.63,0.08-3.26-0.02-4.88c-0.09-1.36,0.19-2,1.77-1.9c2.28,0.15,4.58,0.05,6.87,0.03
		c0.74-0.01,1.3,0.06,1.29,1.03c-0.01,0.99-0.61,1.01-1.33,1c-1.26-0.02-2.51-0.01-3.77,0c-2.15,0-2.88,1.08-2.21,3.1
		c0.25,0.77,0.79,0.52,1.24,0.53c1.4,0.03,2.81,0.03,4.21,0.01c0.68-0.01,1.13,0.11,1.08,0.96c-0.04,0.72-0.27,1.1-1.04,1.09
		c-1.4-0.02-2.82,0.09-4.21-0.02c-1.66-0.13-1.3,1.01-1.26,1.88c0.04,0.81-0.55,2.04,1.19,1.94c1.69-0.1,3.4-0.01,5.1-0.03
		c0.69,0,1.28-0.07,1.31,0.97c0.03,1.06-0.45,1.2-1.33,1.18c-2.51-0.04-5.03-0.06-7.54,0.01c-1.05,0.03-1.44-0.26-1.39-1.35
		c0.08-1.85,0.02-3.7,0.02-5.54C258,409.17,258,409.17,258.01,409.17z"/>
	<path class="st3" d="M198.95,409.22c0-1.85,0.04-3.69-0.02-5.54c-0.03-0.95,0.3-1.29,1.27-1.27c2.44,0.06,4.88,0.03,7.31,0.01
		c0.73,0,1.28,0.02,1.29,1.01c0,0.98-0.54,1.04-1.28,1.02c-1.55-0.02-3.1-0.01-4.65-0.01c-0.82,0-1.82-0.11-1.44,1.2
		c0.26,0.89-0.85,2.61,1.38,2.46c1.32-0.09,2.66-0.01,3.99-0.02c0.6,0,1.18-0.08,1.15,0.86c-0.02,0.82-0.24,1.24-1.13,1.19
		c-1.03-0.05-2.07-0.01-3.1-0.01c-2.14,0.01-2.86,1.06-2.26,3.15c0.22,0.76,0.71,0.61,1.18,0.61c1.7,0.02,3.4,0.02,5.1,0
		c0.79-0.01,1.46-0.01,1.42,1.12c-0.03,0.98-0.57,1.03-1.3,1.02c-2.59-0.01-5.17-0.05-7.76,0.01c-1.02,0.02-1.25-0.4-1.23-1.3
		c0.05-1.85,0.01-3.69,0.01-5.54C198.92,409.22,198.94,409.22,198.95,409.22z"/>
	<path class="st5" d="M433.97,416.08c-1.72,0.08-3.04-0.33-4.36-0.84c-1-0.39-1.04-0.97-0.66-1.86c0.46-1.07,0.97-0.42,1.5-0.15
		c1.28,0.67,2.65,0.81,4.07,0.72c1.02-0.07,2.02-0.27,2.22-1.4c0.23-1.26-0.83-1.55-1.77-1.84c-1.27-0.38-2.55-0.72-3.8-1.15
		c-1.45-0.5-2.38-1.43-2.36-3.09c0.01-1.66,0.82-2.81,2.28-3.47c2.22-1,4.45-0.76,6.68,0.06c0.86,0.32,0.84,0.73,0.53,1.51
		c-0.35,0.87-0.62,0.94-1.41,0.46c-1.11-0.68-2.4-0.61-3.66-0.51c-0.99,0.08-1.75,0.5-1.87,1.54c-0.11,0.99,0.61,1.41,1.45,1.65
		c0.92,0.26,1.84,0.54,2.76,0.79c2.72,0.76,3.97,2.02,3.8,3.88c-0.18,1.99-2.05,3.52-4.58,3.72
		C434.42,416.1,434.05,416.08,433.97,416.08z"/>
	<path class="st6" d="M362.87,416.07c-1.81,0.1-3.22-0.3-4.59-0.89c-0.86-0.37-0.98-0.83-0.57-1.72c0.48-1.05,0.98-0.53,1.55-0.23
		c1.43,0.74,2.96,0.85,4.52,0.66c0.86-0.1,1.59-0.41,1.72-1.4c0.14-1.03-0.53-1.46-1.36-1.7c-1.34-0.39-2.71-0.69-4.03-1.15
		c-1.5-0.52-2.57-1.52-2.53-3.23c0.04-1.73,0.99-2.92,2.56-3.55c2.01-0.81,4.06-0.64,6.07,0.04c0.67,0.23,1.31,0.45,0.95,1.55
		c-0.39,1.17-0.97,0.78-1.62,0.47c-1.26-0.6-2.58-0.53-3.9-0.37c-0.81,0.1-1.36,0.65-1.52,1.41c-0.19,0.89,0.49,1.37,1.2,1.62
		c1.03,0.37,2.11,0.62,3.18,0.92c2.79,0.78,3.76,1.86,3.57,3.97c-0.18,1.96-1.89,3.36-4.38,3.58
		C363.31,416.1,362.94,416.07,362.87,416.07z"/>
	<path class="st5" d="M400.98,402.64c2.01-0.67,2.84,0.15,3.48,1.8c1.05,2.73,2.35,5.36,3.66,8.29c1.36-3.04,2.7-5.78,3.82-8.61
		c0.61-1.55,1.49-1.99,3.13-1.5c-1.82,4.22-3.58,8.4-5.43,12.55c-0.56,1.25-2.54,1.34-3.1,0.12
		C404.63,411.09,402.82,406.85,400.98,402.64z"/>
	<path class="st5" d="M249.5,412.72c1.46-3.23,2.78-6.08,4.03-8.96c0.34-0.79,0.61-1.42,1.68-1.35c0.87,0.06,1.26,0.21,0.85,1.15
		c-1.7,3.9-3.35,7.82-5.1,11.69c-0.56,1.23-2.54,1.18-3.1-0.07c-1.86-4.13-3.63-8.3-5.46-12.53c1.73-0.5,2.69-0.22,3.33,1.51
		C246.75,406.97,248.12,409.65,249.5,412.72z"/>
	<path class="st5" d="M333.68,412.79c1.4-3.16,2.72-5.95,3.88-8.8c0.59-1.44,1.42-1.93,3.05-1.31c-1.81,4.17-3.57,8.35-5.43,12.49
		c-0.55,1.24-2.55,1.3-3.11,0.08c-1.76-3.88-3.42-7.8-5.11-11.71c-0.16-0.38-0.44-0.99,0.18-1.05c0.86-0.08,1.86-0.45,2.39,0.89
		c1.03,2.59,2.25,5.1,3.39,7.64C333.14,411.49,333.33,411.96,333.68,412.79z"/>
	<path class="st4" d="M277.09,409.13c0-1.63-0.05-3.25,0.02-4.88c0.03-0.74-0.53-1.82,1.07-1.86c1.45-0.04,1.49,0.7,1.48,1.78
		c-0.03,2.51,0.12,5.03,0,7.53c-0.07,1.63,0.25,2.44,2.1,2.2c1.31-0.17,2.66-0.01,3.99-0.04c0.69-0.01,1.1,0.12,1.07,0.97
		c-0.03,0.79-0.18,1.24-1.1,1.23c-2.51-0.04-5.03-0.04-7.54,0.01c-0.9,0.02-1.13-0.34-1.11-1.17c0.04-1.92,0.01-3.84,0.01-5.76
		C277.08,409.13,277.08,409.13,277.09,409.13z"/>
	<path class="st3" d="M189.82,408.23c0.26,1.82-0.67,4.22,0.46,5.29c0.96,0.9,3.35,0.27,5.1,0.35c0.72,0.03,1.69-0.37,1.67,1.04
		c-0.02,1.29-0.84,1.17-1.65,1.13c-2.63-0.13-5.27,0.3-7.89-0.24c-0.05-2.5-0.11-4.99-0.14-7.49c-0.02-1.55,0.04-3.1,0.03-4.65
		c0-0.74,0.06-1.28,1.05-1.25c0.86,0.02,1.42,0.12,1.38,1.18C189.78,405.13,189.82,406.68,189.82,408.23z"/>
	<path class="st6" d="M165.2,411.46c-2.11,0.06-3.87-1.61-3.88-3.69c-0.01-1.97,1.62-3.62,3.65-3.68c2.17-0.06,3.84,1.52,3.85,3.66
		C168.83,409.77,167.24,411.4,165.2,411.46z"/>
	<path class="st6" d="M457.13,411.46c-2.1,0.05-3.85-1.63-3.86-3.72c-0.01-1.94,1.67-3.6,3.68-3.65c2.07-0.05,3.73,1.46,3.81,3.46
		C460.84,409.69,459.24,411.41,457.13,411.46z"/>
	<path class="st7" d="M273.53,409.43c0,1.76-0.02,3.53,0.01,5.29c0.01,0.81-0.02,1.42-1.13,1.35c-0.89-0.06-1.54-0.04-1.52-1.26
		c0.07-3.75,0.08-7.49,0.06-11.24c-0.01-1.07,0.56-1.12,1.39-1.17c1.05-0.07,1.22,0.41,1.2,1.3c-0.04,1.91-0.01,3.82-0.01,5.73
		C273.52,409.43,273.53,409.43,273.53,409.43z"/>
	<path class="st8" d="M398.22,401.35c-2.15-0.62-4.29-1.79-6.42,0.34C393.91,397.8,395.54,397.74,398.22,401.35z"/>
	<path class="st2" d="M546.45,309.17c-5.48-3.78-11.79-5.02-18.24-5.17c-9.67-0.23-19.36-0.07-29.04-0.05
		c-2.21,0-4.42,0.13-6.64,0.18c-0.69,0.02-1.12,0.18-1.08,1.01c0.03,0.67,0.16,1.17,0.93,1.24c0.52,0.04,1.03,0.07,1.55,0.11
		c3.77,0.32,5.06,1.59,5.51,5.29c0.36,3.02,0.31,6.04,0.32,9.07c0.05,16.48,0.09,32.96,0.14,49.45c0.02,5.8-1.13,7.41-6.55,7.74
		c-0.77,0.05-1.44,0.16-1.45,1.23c-0.01,1.4,0.99,1.03,1.71,1.03c5.61,0.02,11.23,0.01,16.84,0.01c0-0.05,0-0.11,0-0.16
		c5.62,0,11.23,0,16.85,0.01c0.77,0,1.45,0.08,1.4-1.09c-0.04-0.91-0.24-1.3-1.24-1.3c-1.32,0.01-2.65-0.15-3.97-0.29
		c-3.97-0.43-5.57-1.79-6.02-5.74c-0.76-6.77-0.21-13.58-0.42-20.37c-0.05-1.53,0.32-2,1.91-1.95c5.17,0.15,10.35-0.01,15.4-1.22
		c7.97-1.91,14.71-5.6,18.35-13.46C557.17,325.1,554.68,314.85,546.45,309.17z M535.78,336.15c-1.93,7.63-5.73,10.65-13.62,11.02
		c-1.61,0.08-3.6,0.74-4.72-0.16c-1.07-0.87-0.29-2.91-0.36-4.43c-0.1-2.51-0.03-5.02-0.03-7.53c0.3-7.82-0.7-15.64-0.03-23.47
		c0.34-3.93,1.83-5.38,5.73-5.49c7.24-0.21,11.31,2.83,12.99,9.93C537.34,322.71,537.48,329.45,535.78,336.15z"/>
	<path class="st2" d="M235.23,379.56c-3.41-1.14-4.96-3.95-6.18-7.04c-8.1-20.55-16.23-41.09-24.31-61.65
		c-2.09-5.32-2.04-5.29-7.82-5.33c-1.4-0.01-1.99,0.43-2.49,1.75c-3.29,8.8-6.69,17.56-10.07,26.33
		c-4.86,12.61-9.66,25.23-14.62,37.79c-1.41,3.58-3.3,6.97-7.28,8.43c-0.98,0.36-0.69,1.16-0.72,1.86c-0.03,0.89,0.66,0.62,1.1,0.62
		c6.43-0.01,12.86-0.05,19.29-0.08c0.5,0,1.12,0.09,1.19-0.64c0.04-0.49,0.27-1.15-0.25-1.43c-0.49-0.27-1.13-0.32-1.71-0.39
		c-6.57-0.81-8.5-3.48-7.36-10.05c0.94-5.4,3.29-10.34,4.99-15.49c0.34-1.03,1.07-1.02,1.92-1.03c6.8-0.02,13.6-0.03,20.4-0.14
		c1.17-0.02,1.69,0.41,2.07,1.43c2.15,5.86,4.38,11.68,6.49,17.56c1.91,5.32,0.7,7.11-5.01,7.64c-0.84,0.08-1.62-0.01-1.61,1.24
		c0.01,1.42,1.01,0.99,1.71,0.99c4.88,0.03,9.76,0.02,14.64,0.02c0-0.02,0-0.03,0-0.05c5.03,0,10.05,0.01,15.08-0.01
		c0.53,0,1.27,0.25,1.26-0.73C235.94,380.53,236.14,379.86,235.23,379.56z M197.26,350.97c-5.53,0-11.07,0-16.91,0
		c3.57-9.44,7.15-18.93,10.92-28.91c3.16,8.5,6.12,16.46,9.07,24.43C202.01,350.96,202,350.97,197.26,350.97z"/>
	<path class="st2" d="M339.17,450.88c-8.43-0.19-16.45,9.23-14.53,17.44c0.6,2.56-0.24,4.08-1.82,5.63
		c-1.16,1.14-2.51,2.04-3.84,2.99c-0.97,0.69-1.65,0.51-2.5-0.15c-3.13-2.42-4.79-5.6-4.77-9.53c0.02-2.64-0.83-4.79-2.86-6.41
		c-3.86-3.09-7.78-6.11-11.68-9.15c-0.51-0.4-1.01-0.9-1.68-0.13c-0.7,0.81-0.05,1.09,0.44,1.55c3.83,3.58,7.65,7.17,11.42,10.82
		c0.41,0.4,1.72,0.68,0.59,1.78c-1.06,1.04-1.42-0.07-1.89-0.54c-3.63-3.58-7.21-7.22-10.86-10.79c-0.45-0.45-0.79-1.65-1.88-0.63
		c-1.22,1.14,0.15,1.52,0.62,1.99c3.56,3.65,7.21,7.22,10.77,10.87c0.38,0.39,1.6,0.7,0.63,1.65c-0.93,0.91-1.27-0.21-1.68-0.62
		c-3.69-3.63-7.33-7.3-11.01-10.94c-0.46-0.45-0.83-1.38-1.74-0.54c-1.01,0.93,0.1,1.27,0.51,1.69c3.58,3.64,7.21,7.22,10.79,10.86
		c0.45,0.45,1.64,0.8,0.6,1.87c-1.15,1.19-1.55-0.11-2.03-0.61c-3.47-3.63-6.88-7.32-10.34-10.95c-0.4-0.42-0.72-1.43-1.69-0.7
		c-0.93,0.71-0.51,1.32,0.05,2.02c3.1,3.86,6.16,7.75,9.26,11.6c1.47,1.83,3.41,2.74,5.78,2.73c3.61-0.01,6.5,1.54,8.99,4.08
		c1.13,1.15,1.06,1.84-0.12,2.99c-5.82,5.68-11.54,11.46-17.28,17.22c-0.66,0.67-1.44,1.25-1.57,2.33c-0.2,1.69,0.47,2.91,1.9,3.67
		c1.49,0.8,2.82,0.4,4-0.78c5.74-5.76,11.52-11.48,17.22-17.28c0.97-0.99,1.51-1.14,2.55-0.05c3.69,3.84,7.5,7.56,11.26,11.32
		c2.04,2.04,4.06,4.1,6.13,6.11c1.12,1.09,2.44,1.39,3.83,0.52c1.17-0.73,1.71-1.82,1.47-3.21c-0.18-0.99-0.89-1.66-1.58-2.34
		c-5.81-5.8-11.62-11.6-17.4-17.42c-0.46-0.47-1.48-0.84-0.94-1.75c1.25-2.11,2.83-3.94,4.82-5.41c1.3-0.96,2.49-0.37,3.77-0.05
		c0.71,0.18,1.47,0.16,2.44,0.25c6.34,0.04,13.45-5.84,14.69-12.35C349.21,456.27,345.21,451.02,339.17,450.88z M328.04,465.3
		c0.05,0.48-0.22,0.81-0.78,1.49c-0.08-1.19-0.13-2.03,0.34-2.85c0.37-4.74,3.32-7.39,7.49-9.07
		C331.94,457.82,329.12,460.98,328.04,465.3z"/>
	<path class="st5" d="M301.29,402.62c-2.02-0.3-4.11-0.12-6.17-0.19c-0.92-0.03-1.1,0.46-1.09,1.24c0.03,1.84,0.01,3.69,0.01,5.53
		c-0.02,0-0.04,0-0.05,0c0,1.84,0.03,3.69-0.01,5.53c-0.02,0.9,0.22,1.36,1.23,1.33c1.84-0.06,3.7,0.09,5.53-0.05
		c3.9-0.31,6.45-2.75,6.6-6.14C307.51,405.71,305.56,403.25,301.29,402.62z M301.9,413.52c-1.51,0.59-3.07,0.26-4.61,0.34
		c-0.82,0.04-0.68-0.58-0.69-1.08c-0.01-1.26,0-2.51,0-3.77c0-0.22-0.08-0.48,0.01-0.66c0.62-1.2-1.36-3.38,1.07-3.75
		c3.99-0.61,6.3,0.67,6.99,3.37C305.31,410.48,304.21,412.62,301.9,413.52z"/>
	<path class="st9" d="M226.75,413.06c-0.81-0.98-0.89-1.52,0.31-2.38c1.37-0.98,1.83-2.59,1.42-4.34c-0.44-1.91-1.63-3.06-3.49-3.57
		c-2.1-0.57-4.25-0.21-6.37-0.36c-1.22-0.09-1.47,0.4-1.46,1.51c0.06,3.46,0,6.93,0.02,10.39c0,0.79-0.39,1.77,1.16,1.78
		c1.46,0.01,1.63-0.73,1.43-1.77c-0.4-2.09,0.61-2.37,2.41-2.32c1.56,0.04,1.93,1.17,2.52,2.1c0.88,1.42,1.84,2.5,3.95,1.74
		C227.99,414.85,227.45,413.89,226.75,413.06z M221.98,409.98c-2.81,0.3-2.15-1.47-2.17-2.95c-0.05-1.36-0.44-2.73,1.91-2.55
		c3.02,0.23,4.38,0.91,4.33,2.85C226,409.11,224.71,409.69,221.98,409.98z"/>
	<path class="st10" d="M385.41,413.14c-0.71-0.95-1.15-1.61,0.3-2.51c1.61-1,1.73-2.86,1.33-4.58c-0.39-1.71-1.61-2.76-3.29-3.24
		c-2.24-0.64-4.54-0.27-6.82-0.38c-0.95-0.04-1.06,0.5-1.07,1.25c-0.02,3.61-0.04,7.23-0.12,10.84c-0.02,1.1,0.25,1.57,1.47,1.56
		c1.37,0,1.22-0.89,1.08-1.62c-0.44-2.44,0.92-2.55,2.77-2.45c1.56,0.08,1.8,1.39,2.39,2.29c0.91,1.38,1.88,2.21,3.86,1.51
		C386.58,414.8,386.02,413.95,385.41,413.14z M380.61,409.98c-2.62,0.25-2.49-1.19-2.24-2.89c-0.27-1.65-0.23-2.8,2.08-2.61
		c2.9,0.24,4.18,0.89,4.16,2.8C384.6,409.16,383.42,409.71,380.61,409.98z"/>
	<path class="st11" d="M348.38,402.35c-4.08,0.02-7.2,2.95-7.24,6.79c-0.04,4.01,3.03,6.94,7.26,6.95c4.29,0.01,7.27-2.81,7.28-6.87
		C355.69,405.26,352.57,402.32,348.38,402.35z M348.42,413.87c-2.64-0.02-4.64-1.93-4.72-4.52c-0.08-2.68,1.92-4.75,4.64-4.8
		c2.77-0.05,4.76,1.87,4.78,4.62C353.15,411.93,351.19,413.88,348.42,413.87z"/>
</g>
</svg>
