<?xml version="1.0" encoding="utf-8"?>
<!-- Svg Vector Icons : http://www.onlinewebfonts.com/icon -->
<!DOCTYPE svg PUBLIC "-//W3C//DTD SVG 1.1//EN" "http://www.w3.org/Graphics/SVG/1.1/DTD/svg11.dtd">
<svg version="1.1" xmlns="http://www.w3.org/2000/svg" xmlns:xlink="http://www.w3.org/1999/xlink" x="0px" y="0px" viewBox="0 0 1000 1000" enable-background="new 0 0 1000 1000" xml:space="preserve">
<metadata> Svg Vector Icons : http://www.onlinewebfonts.com/icon </metadata>
<g><path d="M952.1,973.7c-15.9,0-30.1-10.1-35.4-25.2l-3-8.7l0.1-16.3c0-163.9-113.2-303-288.3-354.3l-0.7-0.2l-0.7,0.3c-38.9,18.7-80.5,28.2-123.7,28.2c-43.8,0-85.7-9.5-124.6-28.2l-0.7-0.3l-0.7,0.2C199.3,620.5,86.2,759.6,86.2,923.6v17.8l-1.8,3.9l-1.1,3.3c-5.3,15.1-19.5,25.2-35.4,25.2c-15.9,0-30.1-10.1-35.4-25.2l-2.5-7.1l0-17.8c0-177.3,110-333.5,287.2-407.6l2.7-1.1l-2-2.1c-7.1-7.4-13.4-14.7-19.9-22.7c-5-6.2-9.7-12.3-14.1-18.8c-7-10.4-13.4-21.3-18.9-32.5c-3.4-6.7-6.7-14.2-10.3-23.5c-2.8-7.2-5.4-15-8.4-25.4c-3.4-11.9-5.9-23.3-7.7-35c-1.2-7.9-2-15.6-2.6-23.5c-0.1-2.3-0.5-4.5-0.8-6.7c-0.8-5.6-1.3-9.1-1.3-12.7c0-157.6,128.1-285.7,285.7-285.7c158,0,286.6,128.2,286.6,285.7c0,4-0.5,8-1.1,11.9l-0.9,7.4c-0.6,8-1.4,15.8-2.5,23.5c-1.8,11.9-4.4,23.3-7.8,35c-3,10.4-5.6,18.2-8.4,25.3c-3.6,9.3-6.9,16.8-10.3,23.6c-5.6,11.3-12,22.2-18.9,32.5c-4.4,6.5-9.2,12.7-14.1,18.8c-6.9,8.7-13.4,16-20,22.7l-2.1,2.1l2.7,1.1C879.9,590.1,990,746.2,990,923.6l0,16.3l-0.7,2.5C984.1,962.2,969.1,973.7,952.1,973.7z M500,102.5c-115.3,0.2-209.1,94.2-209.1,209.6c0,73.6,39.7,142.7,103.6,180.4c12.9,7.7,26.6,13.9,40.8,18.7c21.1,6.8,43,10.3,64.8,10.4c21.8,0,43.7-3.6,64.8-10.5c14-4.6,27.7-10.9,40.6-18.6c63.9-37.6,103.6-106.7,103.6-180.3C709.1,196.7,615.3,102.7,500,102.5L500,102.5z"/></g>
</svg>