<?xml version="1.0" encoding="utf-8"?>
<!-- Svg Vector Icons : http://www.onlinewebfonts.com/icon -->
<!DOCTYPE svg PUBLIC "-//W3C//DTD SVG 1.1//EN" "http://www.w3.org/Graphics/SVG/1.1/DTD/svg11.dtd">
<svg version="1.1" xmlns="http://www.w3.org/2000/svg" xmlns:xlink="http://www.w3.org/1999/xlink" x="0px" y="0px" viewBox="0 0 1000 1000" enable-background="new 0 0 1000 1000" xml:space="preserve">
<metadata> Svg Vector Icons : http://www.onlinewebfonts.com/icon </metadata>
<g><g transform="translate(0.000000,511.000000) scale(0.100000,-0.100000)"><path d="M2822.4,4275.6c-193.8-315.3-536.8-875.5-764.7-1246.2l-413.3-673.1l-564.5-8.5c-643.3-8.5-685.9-17-837.2-187.5C106.4,2011.2,100,1981.4,100,1468c0-521.9,14.9-579.4,172.5-724.3c95.9-87.3,159.8-115,296.1-136.3l93.7-12.8l302.5-2407.1c249.2-1998.1,308.9-2422,345.1-2492.3c51.1-100.1,174.7-223.7,281.2-279.1c72.4-38.4,198.1-40.5,3355-40.5h3280.5l85.2,46.9c117.2,61.8,251.4,213,294,328c19.2,51.1,189.6,1152.4,377.1,2447.6c187.5,1295.1,347.2,2366.6,351.5,2381.5c4.3,12.8,34.1,25.6,66,25.6c183.2,0,419.6,176.8,472.9,353.6c38.3,129.9,34.1,945.8-4.3,1039.5c-44.7,108.6-181.1,249.2-289.7,298.2c-87.3,40.5-142.7,44.7-660.4,51.1l-564.5,8.5l-745.6,1214.2c-411.1,668.9-756.2,1231.2-769,1248.3c-19.2,27.7-51.1,17-208.8-78.8c-176.8-108.6-183.2-115-155.5-157.6c78.8-121.4,1356.9-2213.3,1356.9-2221.8c0-4.3-1273.8-8.5-2833.2-8.5c-1557.2,0-2833.1,4.3-2833.1,10.6c0,8.5,1273.8,2091.8,1356.9,2219.7c27.7,42.6,21.3,49-149.1,153.4c-100.1,59.6-185.3,108.6-191.7,108.6C3176,4844.3,3014.1,4588.7,2822.4,4275.6z M1356.8,1894c0-6.4-53.3-95.9-117.2-198.1c-63.9-104.4-117.2-198.1-117.2-210.9c0-12.8,59.6-57.5,134.2-102.2c72.4-44.7,151.2-95.9,176.8-110.8c42.6-27.7,53.3-12.8,245,302.5l200.2,330.2h3120.7h3120.7l200.3-330.2c191.7-315.3,202.4-330.2,245-302.5c25.5,14.9,104.4,66,178.9,110.8c72.4,44.7,132.1,89.5,132.1,100.1c0,12.8-53.3,106.5-117.2,210.9c-63.9,104.4-117.1,193.8-117.1,200.2s170.4,10.6,377,10.6c319.5,0,381.3-4.3,415.4-36.2c34.1-29.8,38.3-72.4,38.3-396.2c0-308.9-6.4-368.5-36.2-402.6c-32-36.2-198.1-38.3-4432.9-38.3c-4064.4,0-4403.1,2.1-4439.3,36.2c-34.1,29.8-38.3,72.4-38.3,396.2c0,308.9,6.4,368.5,36.2,402.6c29.8,34.1,72.4,38.3,415.4,38.3C1186.4,1904.7,1356.8,1900.4,1356.8,1894z M8882.8,590.4c4.3-10.6-123.6-918.1-285.4-2019.4c-161.9-1101.3-315.3-2151.5-340.8-2332.5c-44.7-298.2-53.3-336.6-106.5-389.8l-57.5-57.5H4948.3h-3142l-57.5,49l-57.5,51.1l-294,2341.1c-161.9,1286.6-294,2347.5-296.1,2358.1c0,8.5,1748.9,14.9,3885.5,14.9C7125.4,605.3,8878.5,598.9,8882.8,590.4z"/><path d="M2166.3-1801.8v-1640.2h213h213v1640.2v1640.2h-213h-213V-1801.8z"/><path d="M3465.7-1801.8v-1640.2h223.7H3913v1640.2v1640.2h-223.7h-223.7V-1801.8z"/><path d="M4786.4-1801.8v-1640.2h213h213v1640.2v1640.2h-213h-213V-1801.8z"/><path d="M6085.8-1801.8v-1640.2h223.7h223.7v1640.2v1640.2h-223.7h-223.7V-1801.8z"/><path d="M7406.5-1801.8v-1640.2h213h213v1640.2v1640.2h-213h-213V-1801.8z"/></g></g>
</svg>